Coordinates
version=1
nRows=37
nColumns=19
inDegrees=yes

Units are S.I. units (second, meters, Newtons, ...)
If the header above contains a line with 'inDegrees', this indicates whether rotational values are in degrees (yes) or radians (no).

endheader
time	pelvis_tilt	pelvis_list	pelvis_rotation	pelvis_tx	pelvis_ty	pelvis_tz	hip_flexion_r	hip_adduction_r	hip_rotation_r	knee_angle_r	knee_angle_r_beta	ankle_angle_r	hip_flexion_l	hip_adduction_l	hip_rotation_l	knee_angle_l	knee_angle_l_beta	ankle_angle_l
     11.16666667	    -10.37993340	     -3.11072003	     -5.78036598	      2.25557611	      1.07309617	      1.02662495	     29.56598344	      6.09334043	     -8.49202157	     10.37063700	      0.18100176	     -2.59634896	     -6.46733039	    -12.69166503	    -16.82812053	     66.27396820	      1.15669895	    -10.98555327
     11.17333333	    -10.32352736	     -3.35550949	     -6.01178051	      2.25403013	      1.06780083	      1.02666064	     30.15138992	      6.18339084	     -8.76211142	     13.22902695	      0.23089008	     -2.05854673	     -5.14999358	    -12.97366969	    -15.83323765	     70.04336820	      1.22248739	    -10.80059760
     11.18000000	    -10.38201031	     -3.54728839	     -6.24162923	      2.25234711	      1.06198455	      1.02654674	     30.95335740	      6.17835550	     -9.05662738	     16.47743798	      0.28758555	     -1.21741389	     -3.62343898	    -13.19124494	    -14.86614917	     73.78171930	      1.28773393	    -10.59277567
     11.18666667	    -10.53176698	     -3.70824504	     -6.44374786	      2.25051953	      1.05574607	      1.02629810	     31.88223759	      6.10421227	     -9.33254895	     19.95371921	      0.34825810	     -0.07401180	     -1.90405010	    -13.37607118	    -13.90390326	     77.47896963	      1.35226312	    -10.34472235
     11.19333333	    -10.72991258	     -3.77775082	     -6.60585763	      2.24854560	      1.04927042	      1.02590990	     32.85993846	      5.92008905	     -9.49216931	     23.55224095	      0.41106415	      1.42642376	     -0.02588113	    -13.44062871	    -12.92140292	     81.08642064	      1.41522502	    -10.05370980
     11.20000000	    -10.95036002	     -3.78468437	     -6.69757652	      2.24646148	      1.04272643	      1.02543283	     33.79297300	      5.66622566	     -9.53425760	     27.12104872	      0.47335160	      3.25240472	      1.98407849	    -13.42867661	    -11.90815460	     84.57803629	      1.47616521	     -9.73554641
     11.20666667	    -11.35914807	     -3.72291763	     -6.71015235	      2.24419953	      1.03607591	      1.02485202	     34.82972744	      5.36110382	     -9.45548965	     30.56917958	      0.53353283	      5.29856171	      4.34071214	    -13.34260792	    -10.82885214	     87.96731495	      1.53531928	     -9.32827186
     11.21333333	    -11.80883883	     -3.61439733	     -6.64355004	      2.24180247	      1.02965873	      1.02425465	     35.75988231	      5.04066957	     -9.24390614	     33.78059267	      0.58958257	      7.54370843	      6.85722262	    -13.19313724	     -9.71785573	     91.18820180	      1.59153436	     -8.87791986
     11.22000000	    -12.33066624	     -3.47919112	     -6.47440013	      2.23931222	      1.02360574	      1.02361727	     36.57476211	      4.70504057	     -8.97796246	     36.67428567	      0.64008704	      9.89594750	      9.58115093	    -12.99462848	     -8.54744501	     94.22079416	      1.64446308	     -8.41500722
     11.22666667	    -12.82234695	     -3.35193240	     -6.13492110	      2.23676076	      1.01824855	      1.02283870	     37.12452090	      4.31613945	     -8.80374688	     39.17938611	      0.68380929	     12.25183102	     12.41634454	    -12.73205913	     -7.25069055	     97.01858246	      1.69329370	     -7.99603421
     11.23333333	    -13.36559365	     -3.22981053	     -5.71094813	      2.23413330	      1.01353772	      1.02202522	     37.48188013	      3.93889496	     -8.61291699	     41.25117662	      0.71996885	     14.54977452	     15.41150384	    -12.41293557	     -5.92446042	     99.56028363	      1.73765475	     -7.49807984
     11.24000000	    -14.03584420	     -3.13145254	     -5.27075202	      2.23152598	      1.00947141	      1.02130513	     37.71002507	      3.63676995	     -8.38601722	     42.85835634	      0.74801943	     16.70372806	     18.60584089	    -12.09242401	     -4.64545113	    101.80953270	      1.77691156	     -7.02834018
     11.24666667	    -14.51584838	     -3.12906541	     -4.67407382	      2.22907967	      1.00658290	      1.02039476	     37.43254483	      3.30463936	     -8.41578543	     43.96923015	      0.76740784	     18.64709674	     21.66126218	    -11.74145527	     -3.28659323	    103.70968104	      1.81007540	     -6.61501764
     11.25333333	    -14.67008468	     -3.18875626	     -3.96113308	      2.22691752	      1.00511166	      1.01933826	     36.50526405	      2.94229472	     -8.63978294	     44.57460562	      0.77797363	     20.30410491	     24.36891585	    -11.32225522	     -1.93142083	    105.19486530	      1.83599676	     -6.20990326
     11.26000000	    -15.25821583	     -3.19453686	     -3.34114605	      2.22477790	      1.00379078	      1.01851286	     35.85114044	      2.64610006	     -8.76572767	     44.81554486	      0.78217881	     21.68255163	     27.53932401	    -10.87423357	     -0.76489241	    106.36544523	      1.85642723	     -5.88517803
     11.26666667	    -15.22523503	     -3.26340186	     -2.64644706	      2.22324090	      1.00428553	      1.01758615	     34.23105487	      2.33752284	     -9.10066814	     44.56739064	      0.77784771	     22.77752963	     29.91154738	    -10.39108369	      0.28579155	    107.04120172	      1.86822141	     -5.53810135
     11.27333333	    -15.31841569	     -3.34262759	     -1.94127257	      2.22193074	      1.00544389	      1.01667516	     32.53472625	      2.07376569	     -9.51152691	     43.91683539	      0.76649337	     23.48285411	     32.36226760	     -9.87660150	      1.23762293	    107.35005673	      1.87361194	     -5.23814470
     11.28000000	    -15.41591310	     -3.09727347	     -1.70540260	      2.22112054	      1.00748157	      1.01646351	     30.74501394	      1.83188794	     -9.26554924	     43.01617858	      0.75077395	     23.77872402	     34.46088738	     -9.34111223	      1.38405728	    107.12015521	      1.86959940	     -4.87705524
     11.28666667	    -15.38937250	     -3.34123474	     -0.68601877	      2.22052507	      1.01012630	      1.01518807	     28.50684072	      1.59580919	    -10.29944704	     41.65409688	      0.72700114	     23.78415973	     36.65903960	     -8.75854203	      2.44483768	    106.74169495	      1.86299403	     -4.64376153
     11.29333333	    -15.13856969	     -3.35527472	     -0.13723834	      2.22060645	      1.01383882	      1.01472218	     25.93803819	      1.49230857	    -10.72822041	     40.04082518	      0.69884423	     23.35632550	     38.19764175	     -8.35388253	      2.71890544	    105.84453971	      1.84733571	     -4.25181163
     11.30000000	    -14.93343063	     -3.24027257	      0.36501838	      2.22112392	      1.01806482	      1.01429493	     23.32490844	      1.32658237	    -11.09968122	     38.22608296	      0.66717101	     22.52839891	     39.58910906	     -7.85161795	      2.76293039	    104.58779413	      1.82540136	     -3.87840507
     11.30666667	    -15.30398145	     -2.85390210	      0.56469181	      2.22162539	      1.02192389	      1.01419802	     21.43639584	      1.03770355	    -10.99044506	     36.51899671	      0.63737673	     21.32559645	     41.36919760	     -7.27068069	      2.31616595	    103.00362135	      1.79775233	     -3.48847709
     11.31333333	    -14.31714853	     -2.66377858	      0.99409989	      2.22332844	      1.02815633	      1.01411998	     17.75526194	      0.93654591	    -11.39117695	     34.18917868	      0.59671374	     19.72440194	     41.43701133	     -6.99135489	      1.90487647	    101.03985755	      1.76347819	     -2.97728241
     11.32000000	    -14.10123377	     -2.27794189	      1.22473900	      2.22493816	      1.03354100	      1.01418861	     15.04911662	      0.70200046	    -11.46523053	     32.04446975	      0.55928150	     17.71464510	     42.16920101	     -6.60358207	      1.19640933	     98.84267550	      1.72513013	     -2.52042771
     11.32666667	    -13.92878105	     -1.82403601	      1.37181747	      2.22680989	      1.03906803	      1.01438458	     12.41846838	      0.42313742	    -11.48005592	     29.87647257	      0.52144282	     15.35078897	     42.75632247	     -6.25760604	      0.29086354	     96.38697544	      1.68227008	     -2.07279618
     11.33333333	    -13.76782424	     -1.29994014	      1.45710754	      2.22894102	      1.04473631	      1.01464084	      9.84745320	      0.08096565	    -11.44497408	     27.71045458	      0.48363867	     12.63569143	     43.16315731	     -5.92340509	     -0.78208286	     93.67971856	      1.63501953	     -1.65112267
     11.34000000	    -13.62422855	     -0.72824648	      1.49310423	      2.23123867	      1.05043766	      1.01497451	      7.36645266	     -0.31467333	    -11.38786219	     25.58722168	      0.44658126	      9.60464471	     43.42198985	     -5.60792176	     -1.98588663	     90.75156472	      1.58391361	     -1.27939946
     11.34666667	    -13.47128550	     -0.07904823	      1.40961500	      2.23369318	      1.05617023	      1.01543500	      4.99054891	     -0.81259313	    -11.27204292	     23.57270923	      0.41142139	      6.32756628	     43.47689386	     -5.33224868	     -3.40361498	     87.59042601	      1.52874133	     -0.96077562
     11.35333333	    -13.32280853	      0.57283593	      1.37719807	      2.23622637	      1.06181657	      1.01578902	      2.70523839	     -1.35282353	    -11.31699509	     21.63703004	      0.37763741	      2.85314050	     43.41375871	     -5.00554583	     -4.81496401	     84.23396928	      1.47016011	     -0.73998347
     11.36000000	    -13.18164026	      1.25147524	      1.27110105	      2.23878569	      1.06732712	      1.01618364	      0.57443732	     -1.96087302	    -11.37819584	     19.87817756	      0.34693965	     -0.73785139	     43.20624183	     -4.69095316	     -6.34078461	     80.67395663	      1.40802616	     -0.55242984
     11.36666667	    -14.12052338	      1.63470124	      1.19188450	      2.24080364	      1.07096695	      1.01635598	     -0.04443334	     -2.40679408	    -11.78113093	     18.71445762	      0.32662890	     -4.32435189	     44.20442913	     -4.55689479	     -7.66137340	     77.11533219	      1.34591645	     -0.41536260
     11.37333333	    -12.91523297	      2.49084229	      1.04968743	      2.24374346	      1.07767094	      1.01675639	     -3.22176362	     -3.19199088	    -11.89885927	     16.96944055	      0.29617261	     -7.98114669	     42.47147341	     -4.07435709	     -9.42314238	     73.02838726	      1.27458581	     -0.31239443
     11.38000000	    -12.79390866	      3.02384878	      0.95673877	      2.24608148	      1.08238636	      1.01686500	     -4.85419087	     -3.79576740	    -12.42437001	     15.92179302	      0.27788771	    -11.46175288	     41.96828900	     -3.74904845	    -10.92912883	     68.95602234	      1.20350963	     -0.23174048
     11.38666667	    -12.69255339	      3.48902253	      0.88441180	      2.24823770	      1.08673868	      1.01679348	     -6.27008836	     -4.38810091	    -13.16076726	     15.22696648	      0.26576070	    -14.70030430	     41.40332210	     -3.40722733	    -12.40212000	     64.73301540	      1.12980425	     -0.16849594
     11.39333333	    -12.60716451	      3.82143416	      0.86339271	      2.25018982	      1.09066460	      1.01649088	     -7.48379764	     -4.89728603	    -14.10073349	     14.89611865	      0.25998632	    -17.67494307	     40.79816145	     -3.06746542	    -13.76018801	     60.38889424	      1.05398504	     -0.08342777
     11.40000000	    -12.55855109	      4.05900234	      0.88323444	      2.25190318	      1.09412369	      1.01592701	     -8.45300959	     -5.37641023	    -15.21785378	     15.00134924	      0.26182294	    -20.24185468	     40.17745521	     -2.68988772	    -15.00657799	     55.92955975	      0.97615497	     -0.00327326
     11.40666667	    -12.61580780	      4.19387177	      0.99581878	      2.25328854	      1.09698256	      1.01493442	     -9.08993830	     -5.83816509	    -16.55333732	     15.61308410	      0.27249972	    -22.32400495	     39.63638006	     -2.23338783	    -16.07824432	     51.37437188	      0.89665194	      0.08788879
